# This file uses centimeters as units for non-parametric coordinates.

mtllib LampRemodelSubstance.mtl
g default
v -0.500000 3.031544 0.500000
v 0.500000 3.031544 0.500000
v -0.500000 5.174999 0.500000
v 0.500000 5.174999 0.500000
v -0.500000 5.174999 -0.500000
v 0.500000 5.174999 -0.500000
v -0.500000 3.031544 -0.500000
v 0.500000 3.031544 -0.500000
v -0.586436 5.083165 -0.586436
v -0.586436 5.083165 0.586436
v 0.586436 5.083165 0.586436
v 0.586436 5.083165 -0.586436
v -0.333333 4.140568 -0.333333
v 0.333333 4.140568 -0.333333
v 0.333333 4.140568 0.333333
v -0.333333 4.140568 0.333333
v -0.542341 3.029760 -0.500000
v -0.542341 3.029760 0.500000
v -0.628777 5.081381 0.586436
v -0.628777 5.081381 -0.586436
v 0.542341 3.029760 -0.500000
v 0.542341 3.029760 0.500000
v 0.628777 5.081381 -0.586436
v 0.628777 5.081381 0.586436
v -0.500000 3.029465 0.549339
v 0.500000 3.029465 0.549339
v 0.586436 5.081086 0.635775
v -0.586436 5.081086 0.635775
v 0.586436 5.081086 -0.635775
v -0.586436 5.081086 -0.635775
v 0.500000 3.029465 -0.549339
v -0.500000 3.029465 -0.549339
vt 0.804040 0.460064
vt 0.723392 0.460832
vt 0.730814 0.453087
vt 0.796257 0.452673
vt 0.730317 0.387918
vt 0.795707 0.387523
vt 0.722545 0.380522
vt 0.803119 0.379782
vt 0.782917 0.170342
vt 0.739119 0.170182
vt 0.739446 0.126595
vt 0.783084 0.126813
vt 0.937542 0.384933
vt 0.938712 0.450045
vt 0.805607 0.457926
vt 0.804897 0.381738
vt 0.798365 0.594559
vt 0.733341 0.595557
vt 0.725874 0.462660
vt 0.801767 0.462134
vt 0.589002 0.455669
vt 0.587840 0.390554
vt 0.720977 0.382662
vt 0.721615 0.458875
vt 0.800633 0.377955
vt 0.724822 0.378452
vt 0.728931 0.245770
vt 0.792459 0.245314
vt 0.794656 0.243219
vt 0.726548 0.243852
vt 0.731086 0.597674
vt 0.800807 0.596456
vt 0.587378 0.457769
vt 0.794360 0.053612
vt 0.586022 0.388618
vt 0.939166 0.382833
vt 0.856099 0.181658
vt 0.666205 0.115301
vt 0.940530 0.451981
vt 0.856448 0.116329
vt 0.729002 0.053249
vt 0.665812 0.180645
vn 0.000000 0.685383 0.728182
vn 0.000000 0.685383 0.728182
vn 0.000000 0.685383 0.728182
vn 0.000000 0.685383 0.728182
vn 0.000000 1.000000 0.000000
vn 0.000000 1.000000 0.000000
vn 0.000000 1.000000 0.000000
vn 0.000000 1.000000 0.000000
vn 0.000000 0.685383 -0.728182
vn 0.000000 0.685383 -0.728182
vn 0.000000 0.685383 -0.728182
vn 0.000000 0.685383 -0.728182
vn 0.000000 -1.000000 0.000000
vn 0.000000 -1.000000 0.000000
vn 0.000000 -1.000000 0.000000
vn 0.000000 -1.000000 0.000000
vn 0.728183 0.685383 0.000000
vn 0.728183 0.685383 0.000000
vn 0.728183 0.685383 0.000000
vn 0.728183 0.685383 0.000000
vn -0.728183 0.685383 0.000000
vn -0.728183 0.685383 0.000000
vn -0.728183 0.685383 0.000000
vn -0.728183 0.685383 0.000000
vn -0.999114 -0.042093 0.000000
vn -0.999114 -0.042093 0.000000
vn -0.999114 -0.042093 0.000000
vn -0.999114 -0.042093 0.000000
vn 0.000000 -0.042093 0.999114
vn 0.000000 -0.042093 0.999114
vn 0.000000 -0.042093 0.999114
vn 0.000000 -0.042093 0.999114
vn 0.999114 -0.042093 0.000000
vn 0.999114 -0.042093 0.000000
vn 0.999114 -0.042093 0.000000
vn 0.999114 -0.042093 0.000000
vn 0.000000 -0.042093 -0.999114
vn 0.000000 -0.042093 -0.999114
vn 0.000000 -0.042093 -0.999114
vn 0.000000 -0.042093 -0.999114
vn 0.000000 -0.148613 0.988895
vn 0.000000 -0.148613 0.988895
vn 0.000000 -0.148613 0.988895
vn 0.000000 -0.148613 0.988895
vn -0.988895 -0.148613 0.000000
vn -0.988895 -0.148613 0.000000
vn -0.988895 -0.148613 0.000000
vn -0.988895 -0.148613 0.000000
vn 0.000000 -0.148613 -0.988895
vn 0.000000 -0.148613 -0.988895
vn 0.000000 -0.148613 -0.988895
vn 0.000000 -0.148613 -0.988895
vn 0.988895 -0.148613 0.000000
vn 0.988895 -0.148613 0.000000
vn 0.988895 -0.148613 0.000000
vn 0.988895 -0.148613 0.000000
vn 0.042093 -0.999114 0.000000
vn 0.042093 -0.999114 0.000000
vn 0.042093 -0.999114 0.000000
vn 0.042093 -0.999114 0.000000
vn 0.001770 -0.042019 0.999115
vn 0.001770 -0.042019 0.999115
vn 0.001770 -0.042019 0.999115
vn 0.001770 -0.042019 0.999115
vn -0.042104 0.999113 0.000000
vn -0.042104 0.999113 0.000000
vn -0.042104 0.999113 0.000000
vn -0.042104 0.999113 0.000000
vn 0.001771 -0.042019 -0.999115
vn 0.001771 -0.042019 -0.999115
vn 0.001771 -0.042019 -0.999115
vn 0.001771 -0.042019 -0.999115
vn -0.042093 -0.999114 0.000000
vn -0.042093 -0.999114 0.000000
vn -0.042093 -0.999114 0.000000
vn -0.042093 -0.999114 0.000000
vn -0.001771 -0.042019 -0.999115
vn -0.001771 -0.042019 -0.999115
vn -0.001771 -0.042019 -0.999115
vn -0.001771 -0.042019 -0.999115
vn 0.042104 0.999113 0.000000
vn 0.042104 0.999113 0.000000
vn 0.042104 0.999113 0.000000
vn 0.042104 0.999113 0.000000
vn -0.001769 -0.042019 0.999115
vn -0.001769 -0.042019 0.999115
vn -0.001769 -0.042019 0.999115
vn -0.001769 -0.042019 0.999115
vn 0.000000 -0.999114 -0.042090
vn 0.000000 -0.999114 -0.042090
vn 0.000000 -0.999114 -0.042090
vn 0.000000 -0.999114 -0.042090
vn 0.999115 -0.042019 -0.001770
vn 0.999115 -0.042019 -0.001770
vn 0.999115 -0.042019 -0.001770
vn 0.999115 -0.042019 -0.001770
vn 0.000000 0.999114 0.042094
vn 0.000000 0.999114 0.042094
vn 0.000000 0.999114 0.042094
vn 0.000000 0.999114 0.042094
vn -0.999115 -0.042019 -0.001770
vn -0.999115 -0.042019 -0.001770
vn -0.999115 -0.042019 -0.001770
vn -0.999115 -0.042019 -0.001770
vn 0.000000 0.999114 -0.042094
vn 0.000000 0.999114 -0.042094
vn 0.000000 0.999114 -0.042094
vn 0.000000 0.999114 -0.042094
vn 0.999115 -0.042019 0.001770
vn 0.999115 -0.042019 0.001770
vn 0.999115 -0.042019 0.001770
vn 0.999115 -0.042019 0.001770
vn 0.000000 -0.999114 0.042090
vn 0.000000 -0.999114 0.042090
vn 0.000000 -0.999114 0.042090
vn 0.000000 -0.999114 0.042090
vn -0.999115 -0.042019 0.001770
vn -0.999115 -0.042019 0.001770
vn -0.999115 -0.042019 0.001770
vn -0.999115 -0.042019 0.001770
s off
g pCube5
usemtl lambert2SG
f 10/1/1 11/2/2 4/3/3 3/4/4
f 3/4/5 4/3/6 6/5/7 5/6/8
f 5/6/9 6/5/10 12/7/11 9/8/12
f 13/9/13 14/10/14 15/11/15 16/12/16
f 11/2/17 12/7/18 6/5/19 4/3/20
f 9/8/21 10/1/22 3/4/23 5/6/24
f 17/13/25 18/14/26 19/15/27 20/16/28
f 25/17/29 26/18/30 27/19/31 28/20/32
f 22/21/33 21/22/34 23/23/35 24/24/36
f 30/25/37 29/26/38 31/27/39 32/28/40
f 7/29/41 8/30/42 14/10/43 13/9/44
f 8/42/45 2/38/46 15/11/47 14/10/48
f 2/41/49 1/34/50 16/12/51 15/11/52
f 1/40/53 7/37/54 13/9/55 16/12/56
f 7/36/57 1/39/58 18/14/59 17/13/60
f 1/39/61 10/1/62 19/15/63 18/14/64
f 10/1/65 9/8/66 20/16/67 19/15/68
f 9/8/69 7/36/70 17/13/71 20/16/72
f 2/33/73 8/35/74 21/22/75 22/21/76
f 8/35/77 12/7/78 23/23/79 21/22/80
f 12/7/81 11/2/82 24/24/83 23/23/84
f 11/2/85 2/33/86 22/21/87 24/24/88
f 1/32/89 2/31/90 26/18/91 25/17/92
f 2/31/93 11/2/94 27/19/95 26/18/96
f 11/2/97 10/1/98 28/20/99 27/19/100
f 10/1/101 1/32/102 25/17/103 28/20/104
f 9/8/105 12/7/106 29/26/107 30/25/108
f 12/7/109 8/30/110 31/27/111 29/26/112
f 8/30/113 7/29/114 32/28/115 31/27/116
f 7/29/117 9/8/118 30/25/119 32/28/120
g default
v -0.039082 2.652676 0.039082
v 0.039082 2.652676 0.039082
v -0.039082 4.140568 0.039082
v 0.039082 4.140568 0.039082
v -0.039082 4.140568 -0.039082
v 0.039082 4.140568 -0.039082
v -0.039082 2.652676 -0.039082
v 0.039082 2.652676 -0.039082
vt 0.214444 0.400826
vt 0.194822 0.400499
vt 0.201047 0.026977
vt 0.220670 0.027304
vt 0.161802 0.026323
vt 0.181424 0.026650
vt 0.175199 0.400172
vt 0.155577 0.399844
vt 0.135954 0.399517
vt 0.142179 0.025996
vn 0.000000 0.000000 1.000000
vn 0.000000 0.000000 1.000000
vn 0.000000 0.000000 1.000000
vn 0.000000 0.000000 1.000000
vn 0.000000 1.000000 0.000000
vn 0.000000 1.000000 0.000000
vn 0.000000 1.000000 0.000000
vn 0.000000 1.000000 0.000000
vn 0.000000 0.000000 -1.000000
vn 0.000000 0.000000 -1.000000
vn 0.000000 0.000000 -1.000000
vn 0.000000 0.000000 -1.000000
vn 0.000000 -1.000000 0.000000
vn 0.000000 -1.000000 0.000000
vn 0.000000 -1.000000 0.000000
vn 0.000000 -1.000000 0.000000
vn 1.000000 0.000000 0.000000
vn 1.000000 0.000000 0.000000
vn 1.000000 0.000000 0.000000
vn 1.000000 0.000000 0.000000
vn -1.000000 0.000000 0.000000
vn -1.000000 0.000000 0.000000
vn -1.000000 0.000000 0.000000
vn -1.000000 0.000000 0.000000
s off
g pCube5 pCube2
usemtl lambert2SG
f 33/43/121 34/44/122 36/45/123 35/46/124
f 35//125 36//126 38//127 37//128
f 37/47/129 38/48/130 40/49/131 39/50/132
f 39//133 40//134 34//135 33//136
f 34/44/137 40/49/138 38/48/139 36/45/140
f 39/50/141 33/51/142 35/52/143 37/47/144
g default
v -0.406248 1.838556 0.406248
v 0.406248 1.838556 0.406248
v -0.237594 2.652676 0.237594
v 0.237594 2.652676 0.237594
v -0.237594 2.652676 -0.237594
v 0.237594 2.652676 -0.237594
v -0.406248 1.838556 -0.406248
v 0.406248 1.838556 -0.406248
v 0.642733 1.984196 -0.642733
v -0.642733 1.984196 -0.642733
v -0.642733 1.984196 0.642733
v 0.642733 1.984196 0.642733
v 0.565789 2.247139 -0.565789
v -0.565789 2.247139 -0.565789
v -0.565789 2.247139 0.565789
v 0.565789 2.247139 0.565789
v 0.404074 2.510083 -0.404074
v -0.404074 2.510083 -0.404074
v -0.404074 2.510083 0.404074
v 0.404074 2.510083 0.404074
v 0.602520 1.910521 -0.602520
v -0.602520 1.910521 -0.602520
v -0.602520 1.910521 0.602520
v 0.602520 1.910521 0.602520
v 0.641234 2.106809 -0.641234
v -0.641234 2.106809 -0.641234
v -0.641234 2.106809 0.641234
v 0.641234 2.106809 0.641234
v 0.497424 2.358299 -0.497424
v -0.497424 2.358299 -0.497424
v -0.497424 2.358299 0.497424
v 0.497424 2.358299 0.497424
vt 0.384251 0.756556
vt 0.389688 0.858194
vt 0.363973 0.838348
vt 0.364405 0.782272
vt 0.307897 0.837916
vt 0.308329 0.781840
vt 0.288052 0.863631
vt 0.288883 0.755821
vt 0.289430 0.651545
vt 0.177602 0.856815
vt 0.081721 0.856075
vt 0.385311 0.652284
vt 0.261257 0.685904
vt 0.211961 0.884988
vt 0.264020 0.943056
vt 0.266079 0.676035
vt 0.470210 0.740021
vt 0.412952 0.687074
vt 0.406224 0.944152
vt 0.459171 0.886894
vt 0.270080 0.719246
vt 0.245303 0.876165
vt 0.259639 0.918645
vt 0.261322 0.700376
vt 0.445869 0.735265
vt 0.403615 0.720276
vt 0.410980 0.919812
vt 0.425969 0.877558
vt 0.276873 0.884574
vt 0.278029 0.734708
vt 0.411537 0.751972
vt 0.394273 0.885480
vt 0.410632 0.869371
vt 0.383419 0.864367
vt 0.395429 0.735613
vt 0.390424 0.762826
vt 0.261671 0.750816
vt 0.246333 0.742630
vt 0.260765 0.868216
vt 0.268687 0.899912
vt 0.444702 0.886606
vt 0.402222 0.900942
vt 0.412663 0.701543
vt 0.426999 0.744023
vt 0.227600 0.733582
vt 0.213131 0.733293
vt 0.226433 0.884923
vt 0.259351 0.933114
vt 0.469113 0.882225
vt 0.411045 0.934284
vt 0.408283 0.677132
vt 0.460341 0.735200
vt 0.203189 0.737962
vt 0.178341 0.760934
vt 0.202093 0.880166
vt 0.286991 0.967904
vt 0.282614 0.761994
vt 0.281878 0.857362
vt 0.493961 0.859254
vt 0.382872 0.968643
vt 0.494700 0.763373
vt 0.082460 0.760194
vn 0.000000 0.596150 0.802873
vn 0.000000 0.596150 0.802873
vn 0.000000 0.759491 0.650518
vn 0.000000 0.759491 0.650518
vn 0.000000 1.000000 0.000000
vn 0.000000 1.000000 0.000000
vn 0.000000 1.000000 0.000000
vn 0.000000 1.000000 0.000000
vn 0.000000 0.759491 -0.650518
vn 0.000000 0.759491 -0.650518
vn 0.000000 0.596150 -0.802873
vn 0.000000 0.596150 -0.802873
vn 0.000000 -1.000000 0.000000
vn 0.000000 -1.000000 0.000000
vn 0.000000 -1.000000 0.000000
vn 0.000000 -1.000000 0.000000
vn 0.802873 0.596150 0.000000
vn 0.802873 0.596150 0.000000
vn 0.650518 0.759491 0.000000
vn 0.650518 0.759491 0.000000
vn -0.802873 0.596150 0.000000
vn -0.802873 0.596150 0.000000
vn -0.650518 0.759491 0.000000
vn -0.650518 0.759491 0.000000
vn 0.000000 -0.151148 -0.988511
vn 0.000000 -0.151148 -0.988511
vn 0.000000 -0.732237 -0.681050
vn 0.000000 -0.732237 -0.681050
vn -0.681050 -0.732237 0.000000
vn -0.681050 -0.732237 0.000000
vn -0.988511 -0.151149 0.000000
vn -0.988511 -0.151149 0.000000
vn 0.000000 -0.732237 0.681050
vn 0.000000 -0.732237 0.681050
vn 0.000000 -0.151148 0.988511
vn 0.000000 -0.151148 0.988511
vn 0.681050 -0.732237 0.000000
vn 0.681050 -0.732237 0.000000
vn 0.988511 -0.151149 0.000000
vn 0.988511 -0.151149 0.000000
vn 0.000000 0.487821 -0.872944
vn 0.000000 0.487821 -0.872944
vn 0.000000 0.233640 -0.972323
vn 0.000000 0.233640 -0.972323
vn -0.972323 0.233640 0.000000
vn -0.972323 0.233640 0.000000
vn -0.872944 0.487821 0.000000
vn -0.872944 0.487821 0.000000
vn 0.000000 0.233640 0.972323
vn 0.000000 0.233640 0.972323
vn 0.000000 0.487821 0.872944
vn 0.000000 0.487821 0.872944
vn 0.972323 0.233640 0.000000
vn 0.972323 0.233640 0.000000
vn 0.872944 0.487821 0.000000
vn 0.872944 0.487821 0.000000
vn 0.000000 0.523870 -0.851799
vn 0.000000 0.523870 -0.851799
vn -0.851798 0.523870 0.000000
vn -0.851798 0.523870 0.000000
vn 0.000000 0.523870 0.851799
vn 0.000000 0.523870 0.851799
vn 0.851798 0.523870 0.000000
vn 0.851798 0.523870 0.000000
vn 0.000000 -0.938878 -0.344251
vn 0.000000 -0.938878 -0.344251
vn -0.344251 -0.938878 0.000000
vn -0.344251 -0.938878 0.000000
vn 0.000000 -0.938878 0.344251
vn 0.000000 -0.938878 0.344251
vn 0.344251 -0.938878 0.000000
vn 0.344251 -0.938878 0.000000
s 1
g pCube5 pCube4
usemtl lambert2SG
f 59/88/145 60/54/146 44/55/147 43/56/148
s off
f 43/56/149 44/55/150 46/57/151 45/58/152
s 2
f 45/58/153 46/57/154 57/110/155 58/109/156
s off
f 47/106/157 48/62/158 42/63/159 41/114/160
s 3
f 60/86/161 57/59/162 46/57/163 44/55/164
s 4
f 58/60/165 59/53/166 43/56/167 45/58/168
s 2
f 50/98/169 49/66/170 61/107/171 62/105/172
s 4
f 62/68/173 63/103/174 51/70/175 50/65/176
s 1
f 63/69/177 64/101/178 52/72/179 51/104/180
s 3
f 64/71/181 61/67/182 49/100/183 52/102/184
s 2
f 54/90/185 53/74/186 65/99/187 66/97/188
s 4
f 66/76/189 67/95/190 55/78/191 54/73/192
s 1
f 67/77/193 68/93/194 56/80/195 55/96/196
s 3
f 68/79/197 65/75/198 53/92/199 56/94/200
s 2
f 58/109/156 57/110/155 69/91/201 70/89/202
s 4
f 70/82/203 71/87/204 59/53/166 58/60/165
s 1
f 71/83/205 72/85/206 60/54/146 59/88/145
s 3
f 72/84/207 69/81/208 57/59/162 60/86/161
s 2
f 62/105/172 61/107/171 48/62/209 47/106/210
s 4
f 47/61/211 41/64/212 63/103/174 62/68/173
s 1
f 41/113/213 42/111/214 64/101/178 63/69/177
s 3
f 42/112/215 48/108/216 61/67/182 64/71/181
s 2
f 66/97/188 65/99/187 49/66/170 50/98/169
s 4
f 50/65/176 51/70/175 67/95/190 66/76/189
s 1
f 51/104/180 52/72/179 68/93/194 67/77/193
s 3
f 52/102/184 49/100/183 65/75/198 68/79/197
s 2
f 70/89/202 69/91/201 53/74/186 54/90/185
s 4
f 54/73/192 55/78/191 71/87/204 70/82/203
s 1
f 55/96/196 56/80/195 72/85/206 71/83/205
s 3
f 56/94/200 53/92/199 69/81/208 72/84/207
