# This file uses centimeters as units for non-parametric coordinates.

mtllib StaffModelSubstance.mtl
g default
v -0.095545 0.522467 0.095545
v 0.095545 0.522467 0.095545
v -0.095545 3.494798 0.095545
v 0.095545 3.494798 0.095545
v -0.095545 3.494798 -0.095545
v 0.095545 3.494798 -0.095545
v -0.095545 0.522467 -0.095545
v 0.095545 0.522467 -0.095545
v -0.070253 3.494798 0.070253
v 0.070253 3.494798 0.070253
v 0.070253 3.494798 -0.070253
v -0.070253 3.494798 -0.070253
v -0.130293 4.052010 0.130293
v 0.130293 4.052010 0.130293
v 0.130293 4.052010 -0.130293
v -0.130293 4.052010 -0.130293
v -0.040284 1.425159 0.040284
v -0.040284 1.425159 -0.040284
v 0.040284 1.425159 -0.040284
v 0.040284 1.425159 0.040284
v -0.040284 2.434417 0.040284
v -0.040284 2.434417 -0.040284
v 0.040284 2.434417 -0.040284
v 0.040284 2.434417 0.040284
v -0.130293 4.052010 0.130293
v 0.130293 4.052010 0.130293
v 0.130293 4.052010 -0.130293
v -0.130293 4.052010 -0.130293
v -0.099891 4.156490 0.099891
v 0.099891 4.156490 0.099891
v 0.099891 4.156490 -0.099891
v -0.099891 4.156490 -0.099891
vt 0.506646 0.747709
vt 0.506646 0.761766
vt 0.440117 0.757699
vt 0.440117 0.751773
vt 0.365873 0.757698
vt 0.365873 0.751771
vt 0.287762 0.761762
vt 0.287763 0.747705
vt 0.054822 0.761758
vt 0.054822 0.747701
vt 0.121351 0.751767
vt 0.121351 0.757694
vt 0.195595 0.751768
vt 0.195595 0.757695
vt 0.273706 0.747705
vt 0.273705 0.761762
vt 0.815066 0.064230
vt 0.843148 0.065501
vt 0.850080 0.178055
vt 0.797998 0.175699
vt 0.870861 0.060794
vt 0.896949 0.050323
vt 0.949862 0.149906
vt 0.901479 0.169325
vt 0.030142 0.371566
vt 0.030142 0.310147
vt 0.054768 0.317312
vt 0.054768 0.364400
vt 0.126480 0.310145
vt 0.126483 0.371564
vt 0.101857 0.364400
vt 0.101855 0.317312
vt 0.040765 0.761758
vt 0.040765 0.747701
vt 0.285902 0.749565
vt 0.275566 0.749565
vt 0.285902 0.759901
vt 0.275566 0.759901
vt 0.273709 0.528821
vt 0.287766 0.528821
vt 0.283700 0.595350
vt 0.277773 0.595350
vt 0.283699 0.669594
vt 0.277772 0.669594
vt 0.277768 0.914116
vt 0.283695 0.914116
vt 0.287758 0.980645
vt 0.273701 0.980645
vt 0.277769 0.839872
vt 0.283696 0.839872
vt 0.787890 0.057040
vt 0.747597 0.162363
vt 0.109022 0.389026
vt 0.047603 0.389026
vt 0.047602 0.292687
vt 0.109020 0.292686
vn 0.000000 0.061103 0.998131
vn 0.000000 0.061103 0.998131
vn 0.000000 0.037339 0.999303
vn 0.000000 0.037339 0.999303
vn 0.000000 1.000000 0.000000
vn 0.000000 1.000000 0.000000
vn 0.000000 1.000000 0.000000
vn 0.000000 1.000000 0.000000
vn 0.000000 0.037339 -0.999303
vn 0.000000 0.037339 -0.999303
vn 0.000000 0.061103 -0.998131
vn 0.000000 0.061103 -0.998131
vn 0.000000 -1.000000 0.000000
vn 0.000000 -1.000000 0.000000
vn 0.000000 -1.000000 0.000000
vn 0.000000 -1.000000 0.000000
vn 0.998132 0.061103 0.000000
vn 0.998132 0.061103 0.000000
vn 0.999303 0.037339 0.000000
vn 0.999303 0.037339 0.000000
vn -0.998132 0.061103 0.000000
vn -0.998132 0.061103 0.000000
vn -0.999303 0.037339 0.000000
vn -0.999303 0.037339 0.000000
vn 0.000000 1.000000 -0.000007
vn 0.000000 1.000000 -0.000007
vn 0.000000 1.000000 -0.000007
vn 0.000000 1.000000 -0.000007
vn 0.000000 1.000000 0.000000
vn 0.000000 1.000000 0.000000
vn 0.000000 1.000000 0.000000
vn 0.000000 1.000000 0.000000
vn 0.000000 1.000000 0.000007
vn 0.000000 1.000000 0.000007
vn 0.000000 1.000000 0.000007
vn 0.000000 1.000000 0.000007
vn 0.000000 1.000000 0.000000
vn 0.000000 1.000000 0.000000
vn 0.000000 1.000000 0.000000
vn 0.000000 1.000000 0.000000
vn 0.000000 -0.107131 0.994245
vn 0.000000 -0.107131 0.994245
vn 0.000000 -0.107131 0.994245
vn 0.000000 -0.107131 0.994245
vn 0.994245 -0.107131 0.000000
vn 0.994245 -0.107131 0.000000
vn 0.994245 -0.107131 0.000000
vn 0.994245 -0.107131 0.000000
vn 0.000000 -0.107131 -0.994245
vn 0.000000 -0.107131 -0.994245
vn 0.000000 -0.107131 -0.994245
vn 0.000000 -0.107131 -0.994245
vn -0.994245 -0.107131 0.000000
vn -0.994245 -0.107131 0.000000
vn -0.994245 -0.107131 0.000000
vn -0.994245 -0.107131 0.000000
vn -0.999433 -0.033680 0.000000
vn -0.999433 -0.033680 0.000000
vn 0.000000 -0.033680 -0.999433
vn 0.000000 -0.033680 -0.999433
vn 0.999433 -0.033680 0.000000
vn 0.999433 -0.033680 0.000000
vn 0.000000 -0.033680 0.999433
vn 0.000000 -0.033680 0.999433
vn -0.998645 -0.052043 0.000000
vn -0.998645 -0.052043 0.000000
vn 0.000000 -0.052043 -0.998645
vn 0.000000 -0.052043 -0.998645
vn 0.998645 -0.052043 0.000000
vn 0.998645 -0.052043 0.000000
vn 0.000000 -0.052043 0.998645
vn 0.000000 -0.052043 0.998645
vn 0.000000 0.000000 0.000000
vn 0.000000 0.000000 0.000000
vn 0.000000 0.000000 0.000000
vn 0.000000 0.000000 0.000000
vn 0.000000 0.000000 0.000000
vn 0.000000 0.000000 0.000000
vn 0.000000 0.000000 0.000000
vn 0.000000 0.000000 0.000000
vn 0.000000 0.000000 0.000000
vn 0.000000 0.000000 0.000000
vn 0.000000 0.000000 0.000000
vn 0.000000 0.000000 0.000000
vn 0.000000 0.000000 0.000000
vn 0.000000 0.000000 0.000000
vn 0.000000 0.000000 0.000000
vn 0.000000 0.000000 0.000000
vn 0.000000 0.279390 0.960178
vn 0.000000 0.279390 0.960178
vn 0.000000 0.279390 0.960178
vn 0.000000 0.279390 0.960178
vn 0.960178 0.279390 0.000000
vn 0.960178 0.279390 0.000000
vn 0.960178 0.279390 0.000000
vn 0.960178 0.279390 0.000000
vn 0.000000 0.279390 -0.960178
vn 0.000000 0.279390 -0.960178
vn 0.000000 0.279390 -0.960178
vn 0.000000 0.279390 -0.960178
vn -0.960178 0.279390 0.000000
vn -0.960178 0.279390 0.000000
vn -0.960178 0.279390 0.000000
vn -0.960178 0.279390 0.000000
s 1
g pCube1
usemtl lambert3SG
f 1/39/1 2/40/2 20/41/3 17/42/4
s off
f 29/31/5 30/28/6 31/27/7 32/32/8
s 2
f 18/45/9 19/46/10 8/47/11 7/48/12
s off
f 7/9/13 8/33/14 2/34/15 1/10/16
s 3
f 2/1/17 8/2/18 19/3/19 20/4/20
s 4
f 7/9/21 1/10/22 17/11/23 18/12/24
s off
f 3/15/25 4/8/26 10/35/27 9/36/28
f 4/8/29 6/7/30 11/37/31 10/35/32
f 6/7/33 5/16/34 12/38/35 11/37/36
f 5/16/37 3/15/38 9/36/39 12/38/40
f 9/51/41 10/17/42 14/20/43 13/52/44
f 10/17/45 11/18/46 15/19/47 14/20/48
f 11/18/49 12/21/50 16/24/51 15/19/52
f 12/21/53 9/22/54 13/23/55 16/24/56
s 4
f 18/12/24 17/11/23 21/13/57 22/14/58
s 2
f 22/49/59 23/50/60 19/46/10 18/45/9
s 3
f 20/4/20 19/3/19 23/5/61 24/6/62
s 1
f 17/42/4 20/41/3 24/43/63 21/44/64
s 4
f 22/14/58 21/13/57 3/15/65 5/16/66
s 2
f 5/16/67 6/7/68 23/50/60 22/49/59
s 3
f 24/6/62 23/5/61 6/7/69 4/8/70
s 1
f 21/44/64 24/43/63 4/8/71 3/15/72
s off
f 13//73 14//74 26//75 25//76
f 14//77 15//78 27//79 26//80
f 15//81 16//82 28//83 27//84
f 16//85 13//86 25//87 28//88
f 25/53/89 26/54/90 30/28/91 29/31/92
f 26/25/93 27/26/94 31/27/95 30/28/96
f 27/55/97 28/56/98 32/32/99 31/27/100
f 28/29/101 25/30/102 29/31/103 32/32/104
g default
v -0.179037 4.241190 0.179037
v 0.179037 4.241190 0.179037
v -0.179037 4.599264 0.179037
v 0.179037 4.599264 0.179037
v -0.179037 4.599264 -0.179037
v 0.179037 4.599264 -0.179037
v -0.179037 4.241190 -0.179037
v 0.179037 4.241190 -0.179037
v -0.179037 4.241190 0.179037
v 0.179037 4.241190 0.179037
v 0.179037 4.599264 0.179037
v -0.179037 4.599264 0.179037
v -0.010456 4.409771 0.546697
v 0.010456 4.409771 0.546697
v 0.010456 4.430683 0.546697
v -0.010456 4.430683 0.546697
v -0.010456 4.430683 -0.546697
v 0.010456 4.430683 -0.546697
v 0.010456 4.409771 -0.546697
v -0.010456 4.409771 -0.546697
v 0.429715 4.412311 -0.007916
v 0.429715 4.412311 0.007916
v 0.429715 4.428144 -0.007916
v 0.429715 4.428144 0.007916
v -0.429715 4.412311 -0.007916
v -0.429715 4.412311 0.007916
v -0.429715 4.428144 0.007916
v -0.429715 4.428144 -0.007916
v -0.010945 4.814361 0.010945
v 0.010945 4.814361 0.010945
v 0.010945 4.814361 -0.010945
v -0.010945 4.814361 -0.010945
vt 0.859154 0.748453
vt 0.861302 0.748471
vt 0.860841 0.750705
vt 0.858761 0.750428
vt 0.827448 0.713198
vt 0.893626 0.713307
vt 0.645201 0.280150
vt 0.826641 0.785138
vt 0.579457 0.313130
vt 0.579383 0.309683
vt 0.862232 0.830746
vt 0.858462 0.830755
vt 0.860271 0.618712
vt 0.858346 0.618213
vt 0.858808 0.616188
vt 0.860779 0.616685
vt 0.893209 0.653072
vt 0.826539 0.653527
vt 0.823868 0.581904
vt 0.890460 0.880164
vt 0.858501 0.834426
vt 0.862205 0.834419
vt 0.575950 0.309713
vt 0.575999 0.313148
vt 0.293781 0.149713
vt 0.292026 0.093200
vt 0.356687 0.117824
vt 0.356789 0.121124
vt 0.422996 0.089132
vt 0.424751 0.145645
vt 0.360090 0.121022
vt 0.359987 0.117721
vt 0.812748 0.862689
vt 0.812641 0.802631
vt 0.907968 0.802483
vt 0.547426 0.243442
vt 0.388678 0.184030
vt 0.332166 0.185785
vt 0.328098 0.054815
vt 0.384611 0.053060
vt 0.509042 0.282718
vt 0.509720 0.341671
vt 0.893915 0.784790
vt 0.646787 0.339093
vt 0.908044 0.862543
vt 0.606380 0.242767
vt 0.830386 0.880256
vt 0.894590 0.581294
vt 0.548166 0.379657
vt 0.607299 0.379817
vn 0.000000 0.000000 1.000000
vn 0.000000 0.000000 1.000000
vn 0.000000 0.000000 1.000000
vn 0.000000 0.000000 1.000000
vn 0.000000 1.000000 0.000000
vn 0.000000 1.000000 0.000000
vn 0.000000 1.000000 0.000000
vn 0.000000 1.000000 0.000000
vn 0.000000 0.000000 -1.000000
vn 0.000000 0.000000 -1.000000
vn 0.000000 0.000000 -1.000000
vn 0.000000 0.000000 -1.000000
vn -0.100471 -0.988665 -0.111565
vn 0.100471 -0.988665 -0.111565
vn 0.133589 -0.991037 0.000000
vn -0.133589 -0.991037 0.000000
vn 1.000000 0.000000 0.000000
vn 1.000000 0.000000 0.000000
vn 1.000000 0.000000 0.000000
vn 1.000000 0.000000 0.000000
vn -1.000000 0.000000 0.000000
vn -1.000000 0.000000 0.000000
vn -1.000000 0.000000 0.000000
vn -1.000000 0.000000 0.000000
vn 0.000000 0.000000 0.000000
vn 0.000000 0.000000 0.000000
vn 0.000000 0.000000 0.000000
vn 0.000000 0.000000 0.000000
vn 0.000000 0.000000 0.000000
vn 0.000000 0.000000 0.000000
vn 0.000000 0.000000 0.000000
vn 0.000000 0.000000 0.000000
vn 0.000000 0.000000 0.000000
vn 0.000000 0.000000 0.000000
vn 0.000000 0.000000 0.000000
vn 0.000000 0.000000 0.000000
vn 0.000000 0.000000 0.000000
vn 0.000000 0.000000 0.000000
vn 0.000000 0.000000 0.000000
vn 0.000000 0.000000 0.000000
vn 0.000000 -0.909000 0.416797
vn 0.000000 -0.909000 0.416797
vn 0.000000 -0.909000 0.416797
vn 0.000000 -0.909000 0.416797
vn 0.908999 0.000000 0.416799
vn 0.908999 0.000000 0.416799
vn 0.908999 0.000000 0.416799
vn 0.908999 0.000000 0.416799
vn 0.000000 0.908999 0.416798
vn 0.000000 0.908999 0.416798
vn 0.000000 0.908999 0.416798
vn 0.000000 0.908999 0.416798
vn -0.908999 0.000000 0.416799
vn -0.908999 0.000000 0.416799
vn -0.908999 0.000000 0.416799
vn -0.908999 0.000000 0.416799
vn 0.000000 0.908999 -0.416798
vn 0.000000 0.908999 -0.416798
vn 0.000000 0.908999 -0.416798
vn 0.000000 0.908999 -0.416798
vn 0.908999 0.000000 -0.416799
vn 0.908999 0.000000 -0.416799
vn 0.908999 0.000000 -0.416799
vn 0.908999 0.000000 -0.416799
vn 0.000000 -0.909000 -0.416797
vn 0.000000 -0.909000 -0.416797
vn -0.908999 0.000000 -0.416799
vn -0.908999 0.000000 -0.416799
vn -0.908999 0.000000 -0.416799
vn -0.908999 0.000000 -0.416799
vn 0.563794 -0.825916 0.000000
vn 0.563794 -0.825916 0.000000
vn 0.563795 0.000000 -0.825915
vn 0.563795 0.000000 -0.825915
vn 0.563795 0.000000 -0.825915
vn 0.563795 0.000000 -0.825915
vn 0.563795 0.825915 0.000000
vn 0.563795 0.825915 0.000000
vn 0.563795 0.825915 0.000000
vn 0.563795 0.825915 0.000000
vn 0.563795 0.000000 0.825915
vn 0.563795 0.000000 0.825915
vn 0.563795 0.000000 0.825915
vn 0.563795 0.000000 0.825915
vn -0.563794 -0.825916 0.000000
vn -0.563794 -0.825916 0.000000
vn -0.563795 0.000000 0.825915
vn -0.563795 0.000000 0.825915
vn -0.563795 0.000000 0.825915
vn -0.563795 0.000000 0.825915
vn -0.563795 0.825915 0.000000
vn -0.563795 0.825915 0.000000
vn -0.563795 0.825915 0.000000
vn -0.563795 0.825915 0.000000
vn -0.563795 0.000000 -0.825915
vn -0.563795 0.000000 -0.825915
vn -0.563795 0.000000 -0.825915
vn -0.563795 0.000000 -0.825915
vn 0.000000 0.615753 0.787939
vn 0.000000 0.615753 0.787939
vn 0.000000 0.615753 0.787940
vn 0.000000 0.615753 0.787940
vn 0.787939 0.615753 0.000000
vn 0.787939 0.615753 0.000000
vn 0.787940 0.615753 0.000000
vn 0.787940 0.615753 0.000000
vn 0.000000 0.615753 -0.787939
vn 0.000000 0.615753 -0.787939
vn 0.000000 0.615753 -0.787940
vn 0.000000 0.615753 -0.787940
vn -0.787939 0.615753 0.000000
vn -0.787939 0.615753 0.000000
vn -0.787940 0.615753 0.000000
vn -0.787940 0.615753 0.000000
s off
g pCube1 pCube2
usemtl lambert2SG
f 45/87/105 46/84/106 47/83/107 48/88/108
f 61/77/109 62/68/110 63/67/111 64/78/112
f 49/79/113 50/66/114 51/65/115 52/80/116
s 1
f 39/73/117 40/62/118 34/61/119 33/74/120
s off
f 54/57/121 53/58/122 55/59/123 56/60/124
f 57/69/125 58/70/126 59/71/127 60/72/128
f 33//129 34//130 42//131 41//132
f 34//133 36//134 43//135 42//136
f 36//137 35//138 44//139 43//140
f 35//141 33//142 41//143 44//144
f 41/93/145 42/94/146 46/84/147 45/87/148
f 42/81/149 43/82/150 47/83/151 46/84/152
f 43/95/153 44/96/154 48/88/155 47/83/156
f 44/85/157 41/86/158 45/87/159 48/88/160
f 37/92/161 38/102/162 50/66/163 49/79/164
f 38/63/165 40/100/166 51/65/167 50/66/168
s 1
f 40/106/118 39/105/117 52/80/169 51/65/170
s off
f 39/98/171 37/97/172 49/79/173 52/80/174
s 1
f 34/61/119 40/62/118 53/58/175 54/57/176
s off
f 40/62/177 38/99/178 55/59/179 53/58/180
f 38/99/181 36/64/182 56/60/183 55/59/184
f 36/64/185 34/61/186 54/57/187 56/60/188
s 1
f 39/73/117 33/74/120 58/70/189 57/69/190
s off
f 33/74/191 35/75/192 59/71/193 58/70/194
f 35/75/195 37/104/196 60/72/197 59/71/198
f 37/104/199 39/73/200 57/69/201 60/72/202
f 35/89/203 36/90/204 62/68/205 61/77/206
f 36/64/207 38/99/208 63/67/209 62/68/210
f 38/91/211 37/101/212 64/78/213 63/67/214
f 37/76/215 35/103/216 61/77/217 64/78/218
g default
v -0.072152 4.156490 0.072152
v 0.072152 4.156490 0.072152
v -0.072152 4.241191 0.072152
v 0.072152 4.241191 0.072152
v -0.072152 4.241191 -0.072152
v 0.072152 4.241191 -0.072152
v -0.072152 4.156490 -0.072152
v 0.072152 4.156490 -0.072152
vt 0.090311 0.037152
vt 0.146967 0.036406
vt 0.090748 0.070406
vt 0.147404 0.069661
vt 0.091494 0.127062
vt 0.148150 0.126317
vt 0.091931 0.160317
vt 0.148587 0.159572
vt 0.092676 0.216973
vt 0.149332 0.216228
vt 0.203623 0.035661
vt 0.204061 0.068916
vt 0.033655 0.037897
vt 0.034092 0.071152
vn 0.000000 0.000000 1.000000
vn 0.000000 0.000000 1.000000
vn 0.000000 0.000000 1.000000
vn 0.000000 0.000000 1.000000
vn 0.000000 1.000000 0.000000
vn 0.000000 1.000000 0.000000
vn 0.000000 1.000000 0.000000
vn 0.000000 1.000000 0.000000
vn 0.000000 0.000000 -1.000000
vn 0.000000 0.000000 -1.000000
vn 0.000000 0.000000 -1.000000
vn 0.000000 0.000000 -1.000000
vn 0.000000 -1.000000 0.000000
vn 0.000000 -1.000000 0.000000
vn 0.000000 -1.000000 0.000000
vn 0.000000 -1.000000 0.000000
vn 1.000000 0.000000 0.000000
vn 1.000000 0.000000 0.000000
vn 1.000000 0.000000 0.000000
vn 1.000000 0.000000 0.000000
vn -1.000000 0.000000 0.000000
vn -1.000000 0.000000 0.000000
vn -1.000000 0.000000 0.000000
vn -1.000000 0.000000 0.000000
s off
g pCube1 pCube2 pCube3
usemtl lambert2SG
f 65/107/219 66/108/220 68/110/221 67/109/222
f 67/109/223 68/110/224 70/112/225 69/111/226
f 69/111/227 70/112/228 72/114/229 71/113/230
f 71/113/231 72/114/232 66/116/233 65/115/234
f 66/108/235 72/117/236 70/118/237 68/110/238
f 71/119/239 65/107/240 67/109/241 69/120/242
