# This file uses centimeters as units for non-parametric coordinates.

mtllib TableRemodelSubstance.mtl
g default
v -0.929505 2.484598 2.643108
v 0.929505 2.484598 2.643108
v -0.929505 2.598994 2.643108
v 0.929505 2.598994 2.643108
v -0.929505 2.598994 -2.643108
v 0.929505 2.598994 -2.643108
v -0.929505 2.484598 -2.643108
v 0.929505 2.484598 -2.643108
v -0.809977 2.598994 -2.742266
v -0.809977 2.484598 -2.742266
v -0.809977 2.484598 2.742266
v -0.809977 2.598994 2.742266
v 0.783865 2.598994 -2.742266
v 0.783865 2.484598 -2.742266
v 0.783865 2.484598 2.742266
v 0.783865 2.598994 2.742266
vt 0.849781 0.547529
vt 0.838362 0.556963
vt 0.839411 0.033872
vt 0.850792 0.043353
vt 0.686348 0.556659
vt 0.687397 0.033568
vt 0.672477 0.547174
vt 0.673487 0.042997
vt 0.274807 0.544583
vt 0.263661 0.553939
vt 0.260674 0.040048
vt 0.271928 0.049274
vt 0.114321 0.554807
vt 0.111334 0.040916
vt 0.100621 0.545595
vt 0.097742 0.050286
vt 0.666318 0.556180
vt 0.662577 0.042975
vt 0.681275 0.024537
vt 0.680190 0.565665
vt 0.278724 0.040984
vt 0.281699 0.552793
vt 0.267470 0.031759
vt 0.270553 0.562149
vt 0.687419 0.022657
vt 0.839432 0.022962
vt 0.260612 0.029329
vt 0.111272 0.030197
vt 0.667365 0.033966
vt 0.661566 0.547152
vt 0.285526 0.544520
vt 0.282647 0.049211
vn -0.638478 0.000000 0.769640
vn -0.057777 0.000000 0.998330
vn -0.057777 0.000000 0.998330
vn -0.638478 0.000000 0.769640
vn 0.000000 1.000000 0.000000
vn 0.000000 1.000000 0.000000
vn 0.000000 1.000000 0.000000
vn 0.000000 1.000000 0.000000
vn -0.638478 0.000000 -0.769640
vn -0.057777 0.000000 -0.998330
vn -0.057777 0.000000 -0.998330
vn -0.638478 0.000000 -0.769640
vn 0.000000 -1.000000 0.000000
vn 0.000000 -1.000000 0.000000
vn 0.000000 -1.000000 0.000000
vn 0.000000 -1.000000 0.000000
vn 1.000000 0.000000 0.000000
vn 1.000000 0.000000 0.000000
vn 1.000000 0.000000 0.000000
vn 1.000000 0.000000 0.000000
vn -1.000000 0.000000 0.000000
vn -1.000000 0.000000 0.000000
vn -1.000000 0.000000 0.000000
vn -1.000000 0.000000 0.000000
vn 0.056912 0.000000 -0.998379
vn 0.056912 0.000000 -0.998379
vn 0.000000 -1.000000 0.000000
vn 0.000000 -1.000000 0.000000
vn 0.056912 0.000000 0.998379
vn 0.056912 0.000000 0.998379
vn 0.000000 1.000000 0.000000
vn 0.000000 1.000000 0.000000
vn 0.562787 0.000000 -0.826602
vn 0.562787 0.000000 -0.826602
vn 0.000000 -1.000000 0.000000
vn 0.000000 -1.000000 0.000000
vn 0.562787 0.000000 0.826602
vn 0.562787 0.000000 0.826602
vn 0.000000 1.000000 0.000000
vn 0.000000 1.000000 0.000000
s 1
g TableTop
usemtl lambert2SG
f 1/12/1 11/11/2 12/23/3 3/21/4
s 2
f 3/1/5 12/2/6 9/3/7 5/4/8
s 3
f 5/22/9 9/24/10 10/10/11 7/9/12
s 4
f 7/9/13 10/10/14 11/11/15 1/12/16
s off
f 2/30/17 8/18/18 6/8/19 4/7/20
f 7/9/21 1/12/22 3/32/23 5/31/24
s 3
f 9/3/10 13/6/25 14/25/26 10/26/11
s 4
f 11/11/15 10/10/14 14/13/27 15/14/28
s 1
f 12/27/3 11/11/2 15/14/29 16/28/30
s 2
f 9/3/7 12/2/6 16/5/31 13/6/32
s 3
f 13/6/25 6/8/33 8/29/34 14/19/26
s 4
f 15/14/28 14/13/27 8/15/35 2/16/36
s 1
f 16/5/30 15/20/29 2/17/37 4/7/38
s 2
f 13/6/32 16/5/31 4/7/39 6/8/40
g default
v 0.671818 0.154922 -2.464050
v 0.811007 0.154922 -2.464050
v 0.671818 2.484599 -2.464050
v 0.811007 2.484599 -2.464050
v 0.671818 2.484599 -2.617618
v 0.811007 2.484599 -2.617618
v 0.671818 0.154922 -2.617618
v 0.811007 0.154922 -2.617618
v 0.671818 0.326684 -2.464050
v 0.671818 0.326684 -2.617618
v 0.811007 0.326684 -2.617618
v 0.811007 0.326684 -2.464050
v 0.671818 0.154922 -2.617618
v 0.671818 0.154922 -2.464050
v 0.671818 0.326684 -2.464050
v 0.671818 0.326684 -2.617618
v 0.671818 0.154922 -2.617618
v 0.671818 0.154922 -2.464050
v 0.671818 0.326684 -2.464050
v 0.671818 0.326684 -2.617618
v -0.829046 0.154922 -2.617618
v -0.829046 0.154922 -2.464050
v -0.829046 0.326684 -2.464050
v -0.829046 0.326684 -2.617618
v -0.658520 0.326684 -2.464050
v -0.658520 0.154922 -2.464050
v -0.658520 0.154922 -2.617618
v -0.658520 0.326684 -2.617618
v -0.658520 2.484599 -2.617618
v -0.658520 2.484599 -2.464050
v -0.829046 2.484599 -2.617618
v -0.829046 2.484599 -2.464050
vt 0.846509 0.783406
vt 0.863420 0.783406
vt 0.863420 0.798098
vt 0.846509 0.798098
vt 0.863420 0.982677
vt 0.846509 0.982677
vt 0.846509 0.783406
vt 0.846509 0.798098
vt 0.684868 0.798098
vt 0.684868 0.783406
vt 0.664149 0.798098
vt 0.664149 0.783406
vt 0.684868 0.982677
vt 0.664149 0.982677
vt 0.090832 0.773941
vt 0.074454 0.773941
vt 0.074454 0.759714
vt 0.090832 0.759714
vt 0.090832 0.952691
vt 0.074454 0.952691
vt 0.090832 0.773941
vt 0.090832 0.759714
vt 0.247366 0.759714
vt 0.247366 0.773941
vt 0.267431 0.759714
vt 0.267431 0.773941
vt 0.267431 0.952691
vt 0.247366 0.952691
vt 0.061734 0.759714
vt 0.074454 0.759714
vt 0.061734 0.773941
vt 0.061734 0.952691
vt 0.267431 0.759714
vt 0.280152 0.759714
vt 0.280152 0.773941
vt 0.280152 0.952691
vt 0.103553 0.773941
vt 0.103553 0.952691
vt 0.234645 0.773941
vt 0.234645 0.952691
vt 0.103553 0.964220
vt 0.090832 0.964220
vt 0.074454 0.748184
vt 0.061734 0.748184
vt 0.846509 0.764747
vt 0.684868 0.764747
vt 0.664149 0.783406
vt 0.664149 0.764747
vt 0.846509 0.816757
vt 0.684868 0.816757
vt 0.280152 0.966816
vt 0.267431 0.966816
vn 0.000000 0.000000 1.000000
vn 0.000000 0.000000 1.000000
vn 0.000000 0.000000 1.000000
vn 0.000000 0.000000 1.000000
vn 0.000000 1.000000 0.000000
vn 0.000000 1.000000 0.000000
vn 0.000000 1.000000 0.000000
vn 0.000000 1.000000 0.000000
vn 0.000000 0.000000 -1.000000
vn 0.000000 0.000000 -1.000000
vn 0.000000 0.000000 -1.000000
vn 0.000000 0.000000 -1.000000
vn 0.000000 -1.000000 0.000000
vn 0.000000 -1.000000 0.000000
vn 0.000000 -1.000000 0.000000
vn 0.000000 -1.000000 0.000000
vn 1.000000 0.000000 0.000000
vn 1.000000 0.000000 0.000000
vn 1.000000 0.000000 0.000000
vn 1.000000 0.000000 0.000000
vn -1.000000 0.000000 0.000000
vn -1.000000 0.000000 0.000000
vn -1.000000 0.000000 0.000000
vn -1.000000 0.000000 0.000000
vn -1.000000 0.000000 0.000000
vn -1.000000 0.000000 0.000000
vn -1.000000 0.000000 0.000000
vn -1.000000 0.000000 0.000000
vn 0.000000 0.000000 -1.000000
vn 0.000000 0.000000 -1.000000
vn 1.000000 0.000000 0.000000
vn 1.000000 0.000000 0.000000
vn 0.000000 0.000000 1.000000
vn 0.000000 0.000000 1.000000
vn 0.000000 0.000000 0.000000
vn 0.000000 0.000000 0.000000
vn 0.000000 0.000000 0.000000
vn 0.000000 0.000000 0.000000
vn 0.000000 0.000000 0.000000
vn 0.000000 0.000000 0.000000
vn 0.000000 0.000000 0.000000
vn 0.000000 0.000000 0.000000
vn 0.000000 0.000000 0.000000
vn 0.000000 0.000000 0.000000
vn 0.000000 0.000000 0.000000
vn 0.000000 0.000000 0.000000
vn 0.000000 0.000000 0.000000
vn 0.000000 0.000000 0.000000
vn 0.000000 0.000000 0.000000
vn 0.000000 0.000000 0.000000
vn 0.000000 0.000000 0.000000
vn 0.000000 0.000000 0.000000
vn 0.000000 0.000000 0.000000
vn 0.000000 0.000000 0.000000
vn 0.000000 0.000000 0.000000
vn 0.000000 0.000000 0.000000
vn 0.000000 0.000000 0.000000
vn 0.000000 0.000000 0.000000
vn 0.000000 0.000000 0.000000
vn 0.000000 0.000000 0.000000
vn 0.000000 0.000000 0.000000
vn 0.000000 0.000000 0.000000
vn 0.000000 0.000000 0.000000
vn 0.000000 0.000000 0.000000
vn 0.000000 0.000000 0.000000
vn 0.000000 0.000000 0.000000
vn 0.000000 -1.000000 0.000000
vn 0.000000 -1.000000 0.000000
vn 0.000000 -1.000000 0.000000
vn 0.000000 -1.000000 0.000000
vn 0.000000 0.000000 1.000000
vn 0.000000 0.000000 1.000000
vn 0.000000 0.000000 1.000000
vn 0.000000 0.000000 1.000000
vn 0.000000 1.000000 0.000000
vn 0.000000 1.000000 0.000000
vn 0.000000 1.000000 0.000000
vn 0.000000 1.000000 0.000000
vn 0.000000 0.000000 -1.000000
vn 0.000000 0.000000 -1.000000
vn 0.000000 0.000000 -1.000000
vn 0.000000 0.000000 -1.000000
vn 0.000000 0.000000 1.000000
vn 0.000000 0.000000 1.000000
vn 0.000000 -1.000000 0.000000
vn 0.000000 -1.000000 0.000000
vn 0.000000 0.000000 -1.000000
vn 0.000000 0.000000 -1.000000
vn 0.000000 1.000000 0.000000
vn 0.000000 1.000000 0.000000
vn 0.000000 1.000000 0.000000
vn 0.000000 1.000000 0.000000
vn 1.000000 0.000000 0.000000
vn 1.000000 0.000000 0.000000
vn 1.000000 0.000000 0.000000
vn 1.000000 0.000000 0.000000
vn 0.000000 0.000000 -1.000000
vn 0.000000 0.000000 -1.000000
vn -1.000000 0.000000 0.000000
vn -1.000000 0.000000 0.000000
vn 0.000000 0.000000 1.000000
vn 0.000000 0.000000 1.000000
s 1
g TableTop TableLeg1 TableLeg2
usemtl lambert2SG
f 17/33/41 18/34/42 28/35/43 25/36/44
s off
f 19/70/45 20/73/46 22/74/47 21/51/48
s 2
f 26/47/49 27/48/50 24/49/51 23/50/52
s off
f 23/75/53 24/62/54 18/61/55 17/76/56
s 3
f 18/61/57 24/62/58 27/48/59 28/63/60
s 4
f 37/65/61 38/66/62 39/67/63 40/58/64
s off
f 26/47/65 25/69/66 19/70/67 21/51/68
s 2
f 21/51/69 22/52/70 27/48/50 26/47/49
s 3
f 28/63/60 27/48/59 22/52/71 20/64/72
s 1
f 25/36/44 28/35/43 20/37/73 19/38/74
s off
f 23//75 17//76 30//77 29//78
f 17//79 25//80 31//81 30//82
f 25//83 26//84 32//85 31//86
f 26//87 23//88 29//89 32//90
f 29//91 30//92 34//93 33//94
f 30//95 31//96 35//97 34//98
f 31//99 32//100 36//101 35//102
f 32//103 29//104 33//105 36//106
s 5
f 33/77/107 34/39/108 42/42/109 43/78/110
s 6
f 34/39/111 35/40/112 41/41/113 42/42/114
s off
f 35/40/115 36/81/116 44/82/117 41/41/118
s 7
f 36/53/119 33/54/120 43/55/121 44/56/122
s 6
f 42/42/114 41/41/113 39/43/123 38/44/124
s 5
f 43/78/110 42/42/109 38/79/125 37/80/126
s 7
f 44/56/122 43/55/121 37/57/127 40/58/128
s off
f 46/83/129 45/84/130 47/59/131 48/68/132
f 41/71/133 44/56/134 45/60/135 46/72/136
s 7
f 44/56/122 40/58/128 47/59/137 45/60/138
s 4
f 40/58/64 39/67/63 48/68/139 47/59/140
s 6
f 39/43/123 41/41/113 46/45/141 48/46/142
g default
v 0.671818 0.154922 2.549077
v 0.811007 0.154922 2.549077
v 0.671818 2.484599 2.549077
v 0.811007 2.484599 2.549077
v 0.671818 2.484599 2.395508
v 0.811007 2.484599 2.395508
v 0.671818 0.154922 2.395508
v 0.811007 0.154922 2.395508
v 0.671818 0.326684 2.549077
v 0.671818 0.326684 2.395508
v 0.811007 0.326684 2.395508
v 0.811007 0.326684 2.549077
v 0.671818 0.154922 2.395508
v 0.671818 0.154922 2.549077
v 0.671818 0.326684 2.549077
v 0.671818 0.326684 2.395508
v 0.671818 0.154922 2.395508
v 0.671818 0.154922 2.549077
v 0.671818 0.326684 2.549077
v 0.671818 0.326684 2.395508
v -0.829046 0.154922 2.395508
v -0.829046 0.154922 2.549077
v -0.829046 0.326684 2.549077
v -0.829046 0.326684 2.395508
v -0.658520 0.326684 2.549077
v -0.658520 0.154922 2.549077
v -0.658520 0.154922 2.395508
v -0.658520 0.326684 2.395508
v -0.658520 2.484599 2.395508
v -0.658520 2.484599 2.549077
v -0.829046 2.484599 2.395508
v -0.829046 2.484599 2.549077
vt 0.846509 0.783406
vt 0.863420 0.783406
vt 0.863420 0.798098
vt 0.846509 0.798098
vt 0.863420 0.982677
vt 0.846509 0.982677
vt 0.846509 0.783406
vt 0.846509 0.798098
vt 0.684868 0.798098
vt 0.684868 0.783406
vt 0.664149 0.798098
vt 0.664149 0.783406
vt 0.684868 0.982677
vt 0.664149 0.982677
vt 0.090832 0.773941
vt 0.074454 0.773941
vt 0.074454 0.759714
vt 0.090832 0.759714
vt 0.090832 0.952691
vt 0.074454 0.952691
vt 0.090832 0.773941
vt 0.090832 0.759714
vt 0.247366 0.759714
vt 0.247366 0.773941
vt 0.267431 0.759714
vt 0.267431 0.773941
vt 0.267431 0.952691
vt 0.247366 0.952691
vt 0.061734 0.759714
vt 0.074454 0.759714
vt 0.061734 0.773941
vt 0.061734 0.952691
vt 0.267431 0.759714
vt 0.280152 0.759714
vt 0.280152 0.773941
vt 0.280152 0.952691
vt 0.103553 0.773941
vt 0.103553 0.952691
vt 0.234645 0.773941
vt 0.234645 0.952691
vt 0.103553 0.964220
vt 0.090832 0.964220
vt 0.074454 0.748184
vt 0.061734 0.748184
vt 0.846509 0.764747
vt 0.684868 0.764747
vt 0.664149 0.783406
vt 0.664149 0.764747
vt 0.846509 0.816757
vt 0.684868 0.816757
vt 0.280152 0.966816
vt 0.267431 0.966816
vn 0.000000 0.000000 1.000000
vn 0.000000 0.000000 1.000000
vn 0.000000 0.000000 1.000000
vn 0.000000 0.000000 1.000000
vn 0.000000 1.000000 0.000000
vn 0.000000 1.000000 0.000000
vn 0.000000 1.000000 0.000000
vn 0.000000 1.000000 0.000000
vn 0.000000 0.000000 -1.000000
vn 0.000000 0.000000 -1.000000
vn 0.000000 0.000000 -1.000000
vn 0.000000 0.000000 -1.000000
vn 0.000000 -1.000000 0.000000
vn 0.000000 -1.000000 0.000000
vn 0.000000 -1.000000 0.000000
vn 0.000000 -1.000000 0.000000
vn 1.000000 0.000000 0.000000
vn 1.000000 0.000000 0.000000
vn 1.000000 0.000000 0.000000
vn 1.000000 0.000000 0.000000
vn -1.000000 0.000000 0.000000
vn -1.000000 0.000000 0.000000
vn -1.000000 0.000000 0.000000
vn -1.000000 0.000000 0.000000
vn -1.000000 0.000000 0.000000
vn -1.000000 0.000000 0.000000
vn -1.000000 0.000000 0.000000
vn -1.000000 0.000000 0.000000
vn 0.000000 0.000000 -1.000000
vn 0.000000 0.000000 -1.000000
vn 1.000000 0.000000 0.000000
vn 1.000000 0.000000 0.000000
vn 0.000000 0.000000 1.000000
vn 0.000000 0.000000 1.000000
vn 0.000000 0.000000 0.000000
vn 0.000000 0.000000 0.000000
vn 0.000000 0.000000 0.000000
vn 0.000000 0.000000 0.000000
vn 0.000000 0.000000 0.000000
vn 0.000000 0.000000 0.000000
vn 0.000000 0.000000 0.000000
vn 0.000000 0.000000 0.000000
vn 0.000000 0.000000 0.000000
vn 0.000000 0.000000 0.000000
vn 0.000000 0.000000 0.000000
vn 0.000000 0.000000 0.000000
vn 0.000000 0.000000 0.000000
vn 0.000000 0.000000 0.000000
vn 0.000000 0.000000 0.000000
vn 0.000000 0.000000 0.000000
vn 0.000000 0.000000 0.000000
vn 0.000000 0.000000 0.000000
vn 0.000000 0.000000 0.000000
vn 0.000000 0.000000 0.000000
vn 0.000000 0.000000 0.000000
vn 0.000000 0.000000 0.000000
vn 0.000000 0.000000 0.000000
vn 0.000000 0.000000 0.000000
vn 0.000000 0.000000 0.000000
vn 0.000000 0.000000 0.000000
vn 0.000000 0.000000 0.000000
vn 0.000000 0.000000 0.000000
vn 0.000000 0.000000 0.000000
vn 0.000000 0.000000 0.000000
vn 0.000000 0.000000 0.000000
vn 0.000000 0.000000 0.000000
vn 0.000000 -1.000000 0.000000
vn 0.000000 -1.000000 0.000000
vn 0.000000 -1.000000 0.000000
vn 0.000000 -1.000000 0.000000
vn 0.000000 0.000000 1.000000
vn 0.000000 0.000000 1.000000
vn 0.000000 0.000000 1.000000
vn 0.000000 0.000000 1.000000
vn 0.000000 1.000000 0.000000
vn 0.000000 1.000000 0.000000
vn 0.000000 1.000000 0.000000
vn 0.000000 1.000000 0.000000
vn 0.000000 0.000000 -1.000000
vn 0.000000 0.000000 -1.000000
vn 0.000000 0.000000 -1.000000
vn 0.000000 0.000000 -1.000000
vn 0.000000 0.000000 1.000000
vn 0.000000 0.000000 1.000000
vn 0.000000 -1.000000 0.000000
vn 0.000000 -1.000000 0.000000
vn 0.000000 0.000000 -1.000000
vn 0.000000 0.000000 -1.000000
vn 0.000000 1.000000 0.000000
vn 0.000000 1.000000 0.000000
vn 0.000000 1.000000 0.000000
vn 0.000000 1.000000 0.000000
vn 1.000000 0.000000 0.000000
vn 1.000000 0.000000 0.000000
vn 1.000000 0.000000 0.000000
vn 1.000000 0.000000 0.000000
vn 0.000000 0.000000 -1.000000
vn 0.000000 0.000000 -1.000000
vn -1.000000 0.000000 0.000000
vn -1.000000 0.000000 0.000000
vn 0.000000 0.000000 1.000000
vn 0.000000 0.000000 1.000000
s 1
g TableTop TableLeg1 TableLeg2
usemtl lambert2SG
f 49/85/143 50/86/144 60/87/145 57/88/146
s off
f 51/122/147 52/125/148 54/126/149 53/103/150
s 2
f 58/99/151 59/100/152 56/101/153 55/102/154
s off
f 55/127/155 56/114/156 50/113/157 49/128/158
s 3
f 50/113/159 56/114/160 59/100/161 60/115/162
s 4
f 69/117/163 70/118/164 71/119/165 72/110/166
s off
f 58/99/167 57/121/168 51/122/169 53/103/170
s 2
f 53/103/171 54/104/172 59/100/152 58/99/151
s 3
f 60/115/162 59/100/161 54/104/173 52/116/174
s 1
f 57/88/146 60/87/145 52/89/175 51/90/176
s off
f 55//177 49//178 62//179 61//180
f 49//181 57//182 63//183 62//184
f 57//185 58//186 64//187 63//188
f 58//189 55//190 61//191 64//192
f 61//193 62//194 66//195 65//196
f 62//197 63//198 67//199 66//200
f 63//201 64//202 68//203 67//204
f 64//205 61//206 65//207 68//208
s 5
f 65/129/209 66/91/210 74/94/211 75/130/212
s 6
f 66/91/213 67/92/214 73/93/215 74/94/216
s off
f 67/92/217 68/133/218 76/134/219 73/93/220
s 7
f 68/105/221 65/106/222 75/107/223 76/108/224
s 6
f 74/94/216 73/93/215 71/95/225 70/96/226
s 5
f 75/130/212 74/94/211 70/131/227 69/132/228
s 7
f 76/108/224 75/107/223 69/109/229 72/110/230
s off
f 78/135/231 77/136/232 79/111/233 80/120/234
f 73/123/235 76/108/236 77/112/237 78/124/238
s 7
f 76/108/224 72/110/230 79/111/239 77/112/240
s 4
f 72/110/166 71/119/165 80/120/241 79/111/242
s 6
f 71/95/225 73/93/215 78/97/243 80/98/244
