# This file uses centimeters as units for non-parametric coordinates.

mtllib HammerRemodelSubstance.mtl
g default
v -0.272779 -0.000000 0.272779
v 0.272779 -0.000000 0.272779
v -0.173447 3.922307 0.173447
v 0.173447 3.922307 0.173447
v -0.173447 3.922307 -0.173447
v 0.173447 3.922307 -0.173447
v -0.272779 -0.000000 -0.272779
v 0.272779 -0.000000 -0.272779
v -0.272779 3.836258 0.272779
v -0.272779 3.836258 -0.272779
v 0.272779 3.836258 -0.272779
v 0.272779 3.836258 0.272779
v -0.173447 7.077342 0.173447
v 0.173447 7.077342 0.173447
v 0.173447 7.077342 -0.173447
v -0.173447 7.077342 -0.173447
v 0.000000 7.077342 0.219019
v 0.000000 7.077342 -0.219019
v 0.000000 3.922307 -0.219019
v 0.000000 3.836258 -0.344449
v 0.000000 -0.000000 -0.344449
v 0.000000 -0.000000 0.344449
v 0.000000 3.836258 0.344449
v 0.000000 3.922307 0.219019
v -0.200959 7.077342 0.000000
v -0.200959 3.922307 0.000000
v -0.374036 3.836258 0.000000
v -0.374036 -0.000000 0.000000
v 0.000000 -0.000000 0.000000
v 0.374036 -0.000000 0.000000
v 0.374036 3.836258 0.000000
v 0.200959 3.922307 0.000000
v 0.200959 7.077342 0.000000
v -0.149763 6.932131 -0.117149
v 0.000000 6.932131 -0.147929
v 0.149763 6.932131 -0.117149
v 0.168345 6.932131 0.000000
v 0.149763 6.932131 0.117149
v 0.000000 6.932131 0.147929
v -0.149763 6.932131 0.117149
v -0.168345 6.932131 0.000000
v -0.252905 7.347337 0.252905
v 0.252905 7.347337 0.252905
v -0.252905 7.853144 0.252905
v 0.252905 7.853144 0.252905
v -0.252905 7.853144 -0.252905
v 0.252905 7.853144 -0.252905
v -0.252905 7.347337 -0.252905
v 0.252905 7.347337 -0.252905
v 0.487152 7.459864 -0.140378
v 0.487152 7.459864 0.140378
v 0.487152 7.740617 -0.140378
v 0.487152 7.740617 0.140378
v -0.487152 7.459864 -0.140378
v -0.487152 7.459864 0.140378
v -0.487152 7.740617 0.140378
v -0.487152 7.740617 -0.140378
v 0.662033 7.459864 -0.140378
v 0.662033 7.459864 0.140378
v 0.662033 7.740617 -0.140378
v 0.662033 7.740617 0.140378
v -0.662033 7.459864 -0.140378
v -0.662033 7.459864 0.140378
v -0.662033 7.740617 0.140378
v -0.662033 7.740617 -0.140378
v 0.827906 7.330588 -0.269653
v 0.827906 7.330588 0.269653
v 0.827906 7.869893 -0.269653
v 0.827906 7.869893 0.269653
v -0.827906 7.330588 -0.269653
v -0.827906 7.330588 0.269653
v -0.827906 7.869893 0.269653
v -0.827906 7.869893 -0.269653
v 1.127957 7.330588 -0.269653
v 1.127957 7.330588 0.269653
v 1.127957 7.869893 -0.269653
v 1.127957 7.869893 0.269653
v -1.127957 7.330588 -0.269653
v -1.127957 7.330588 0.269653
v -1.127957 7.869893 0.269653
v -1.127957 7.869893 -0.269653
v 1.127957 7.940123 0.000000
v 0.827906 7.940123 0.000000
v 0.662033 7.777178 0.000000
v 0.487152 7.777178 0.000000
v 0.252905 7.919012 0.000000
v -0.252905 7.919012 0.000000
v -0.487152 7.777178 0.000000
v -0.662033 7.777178 0.000000
v -0.827906 7.940123 0.000000
v -1.127957 7.940123 0.000000
v -1.127957 7.260358 0.000000
v -0.827906 7.260358 0.000000
v -0.662033 7.423303 0.000000
v -0.487152 7.423303 0.000000
v -0.252905 7.302254 0.000000
v 0.252905 7.302254 0.000000
v 0.487152 7.423303 0.000000
v 0.662033 7.423303 0.000000
v 0.827906 7.260358 0.000000
v 1.127957 7.260358 0.000000
v 1.127957 7.600240 0.326578
v 0.827906 7.600240 0.326578
v 0.662033 7.600240 0.170012
v 0.487152 7.600240 0.170012
v 0.252905 7.600240 0.306294
v -0.252905 7.600240 0.306294
v -0.487152 7.600240 0.170012
v -0.662033 7.600240 0.170012
v -0.827906 7.600240 0.326578
v -1.127957 7.600240 0.326578
v -1.127957 7.600240 0.000000
v -1.127957 7.600240 -0.326578
v -0.827906 7.600240 -0.326578
v -0.662033 7.600240 -0.170012
v -0.487152 7.600240 -0.170012
v -0.252905 7.600240 -0.306294
v 0.252905 7.600240 -0.306294
v 0.487152 7.600240 -0.170012
v 0.662033 7.600240 -0.170012
v 0.827906 7.600240 -0.326578
v 1.127957 7.600240 -0.326578
v 1.127957 7.600240 0.000000
v 0.000000 7.327418 0.272823
v 0.000000 7.600240 0.330417
v 0.000000 7.873063 0.272823
v 0.000000 7.944118 0.000000
v 0.000000 7.873063 -0.272823
v 0.000000 7.600240 -0.330417
v 0.000000 7.327418 -0.272823
vt 0.314421 0.631657
vt 0.336976 0.634499
vt 0.339493 0.931395
vt 0.317234 0.935679
vt 0.359481 0.631357
vt 0.361820 0.935302
vt 0.336658 0.584319
vt 0.314021 0.587489
vt 0.311419 0.285553
vt 0.334280 0.285333
vt 0.359159 0.587098
vt 0.357333 0.285170
vt 0.336763 0.609407
vt 0.312073 0.609590
vt 0.361446 0.609210
vt 0.339977 0.988764
vt 0.318375 0.980715
vt 0.326985 0.971994
vt 0.339853 0.974036
vt 0.311905 0.959281
vt 0.323521 0.959183
vt 0.361440 0.980351
vt 0.352684 0.971777
vt 0.326768 0.946314
vt 0.355932 0.958909
vt 0.367547 0.958811
vt 0.339599 0.944055
vt 0.352467 0.946097
vt 0.012266 0.611985
vt 0.012112 0.589691
vt 0.012468 0.634279
vt 0.661074 0.584526
vt 0.661272 0.606685
vt 0.661447 0.628844
vt 0.692132 0.065268
vt 0.715444 0.064110
vt 0.736368 0.462030
vt 0.720537 0.460916
vt 0.738557 0.063017
vt 0.752534 0.463330
vt 0.729218 0.479934
vt 0.706838 0.474118
vt 0.749804 0.485174
vt 0.718160 0.508281
vt 0.685199 0.505934
vt 0.741580 0.524293
vt 0.808773 0.061761
vt 0.831858 0.061616
vt 0.827708 0.462679
vt 0.811317 0.463432
vt 0.835146 0.484132
vt 0.813683 0.483966
vt 0.785742 0.061865
vt 0.794828 0.464122
vt 0.843516 0.523325
vt 0.816964 0.514397
vt 0.792914 0.486656
vt 0.793847 0.526877
vt 0.928730 0.781359
vt 0.955076 0.777399
vt 0.956636 0.808297
vt 0.926185 0.807345
vt 0.981582 0.779311
vt 0.988155 0.806322
vt 0.956080 0.840918
vt 0.928758 0.833834
vt 0.982964 0.833377
vt 0.664082 0.775176
vt 0.690034 0.779318
vt 0.692285 0.805965
vt 0.662593 0.806064
vt 0.689306 0.832390
vt 0.661545 0.838639
vt 0.637029 0.777555
vt 0.632856 0.803430
vt 0.634410 0.829919
vt 0.532867 0.860520
vt 0.505980 0.859396
vt 0.510326 0.834229
vt 0.534788 0.835821
vt 0.480345 0.851388
vt 0.486742 0.827523
vt 0.514469 0.809761
vt 0.536773 0.813598
vt 0.561207 0.834290
vt 0.559890 0.849305
vt 0.458836 0.831634
vt 0.462293 0.817455
vt 0.492155 0.805936
vt 0.563838 0.818180
vt 0.578594 0.837715
vt 0.574022 0.851602
vt 0.444792 0.829987
vt 0.444828 0.814840
vt 0.465063 0.801381
vt 0.581840 0.821324
vt 0.599148 0.847279
vt 0.589804 0.871096
vt 0.423501 0.843154
vt 0.422552 0.817205
vt 0.447000 0.798308
vt 0.605496 0.825402
vt 0.626794 0.855745
vt 0.617795 0.881543
vt 0.394022 0.843364
vt 0.393711 0.816584
vt 0.423419 0.794369
vt 0.395006 0.789394
vt 0.926222 0.687360
vt 0.950913 0.684747
vt 0.952071 0.710616
vt 0.937938 0.711990
vt 0.975739 0.685146
vt 0.966270 0.710726
vt 0.952864 0.728327
vt 0.938566 0.728116
vt 0.967084 0.726856
vt 0.953844 0.750178
vt 0.927652 0.750650
vt 0.979956 0.748403
vt 0.666958 0.682662
vt 0.691624 0.685005
vt 0.680087 0.709716
vt 0.666134 0.708559
vt 0.680115 0.725836
vt 0.665448 0.726278
vt 0.642174 0.683280
vt 0.651908 0.708796
vt 0.691792 0.748405
vt 0.664621 0.748044
vt 0.651151 0.724944
vt 0.638387 0.746703
vt 0.855429 0.061909
vt 0.848506 0.460066
vt 0.879263 0.062458
vt 0.868911 0.457997
vt 0.856784 0.479767
vt 0.878297 0.472858
vt 0.869065 0.510859
vt 0.784325 0.781675
vt 0.900782 0.504098
vt 0.809227 0.806752
vt 0.785111 0.806580
vt 0.833344 0.806915
vt 0.809034 0.833531
vt 0.783973 0.831470
vt 0.758979 0.806394
vt 0.758496 0.792219
vt 0.860108 0.793004
vt 0.859495 0.807016
vt 0.834128 0.831811
vt 0.758293 0.820560
vt 0.741420 0.806271
vt 0.742183 0.792129
vt 0.876401 0.792771
vt 0.877058 0.807190
vt 0.859975 0.821211
vt 0.741968 0.820419
vt 0.719822 0.806127
vt 0.720469 0.779937
vt 0.898310 0.780528
vt 0.898619 0.807401
vt 0.876306 0.821350
vt 0.720001 0.832285
vt 0.898146 0.833511
vt 0.762168 0.062344
vt 0.773629 0.463512
vt 0.771469 0.486204
vt 0.768730 0.519527
vt 0.542350 0.792297
vt 0.518587 0.785529
vt 0.496120 0.759481
vt 0.493921 0.783989
vt 0.569982 0.788154
vt 0.566634 0.802291
vt 0.467648 0.785554
vt 0.469180 0.770754
vt 0.584285 0.789685
vt 0.583798 0.804834
vt 0.450532 0.782220
vt 0.454994 0.768455
vt 0.606137 0.776127
vt 0.605272 0.802655
vt 0.430481 0.772789
vt 0.439737 0.748978
vt 0.402971 0.763882
vt 0.412012 0.738496
vt 0.522938 0.760556
vt 0.809409 0.779969
vt 0.834457 0.782040
vt 0.548511 0.768526
vn -0.254115 0.000000 0.967174
vn 0.000000 0.000000 1.000000
vn 0.000000 0.022781 0.999741
vn -0.254072 0.018303 0.967012
vn -0.254072 0.018303 -0.967012
vn 0.000000 0.022781 -0.999740
vn 0.000000 0.000000 -1.000000
vn -0.254115 0.000000 -0.967174
vn 0.000000 -1.000000 0.000000
vn 0.000000 -1.000000 0.000000
vn 0.000000 -1.000000 0.000000
vn 0.000000 -1.000000 0.000000
vn 0.937494 0.000000 0.348002
vn 1.000000 0.000000 0.000000
vn 0.999681 0.025243 0.000000
vn 0.937601 0.022810 0.346965
vn -1.000000 0.000000 0.000000
vn -0.937494 0.000000 0.348002
vn -0.937601 0.022810 0.346965
vn -0.999681 0.025243 0.000000
vn -0.491248 0.859406 0.141761
vn -0.496260 0.868174 0.000000
vn -0.147018 0.815647 -0.559558
vn -0.000000 0.824607 -0.565706
vn 0.496260 0.868174 -0.000000
vn 0.491248 0.859407 0.141760
vn -0.000000 0.824607 0.565706
vn -0.147018 0.815647 0.559558
vn -0.229847 0.021495 0.972990
vn 0.000000 0.022086 0.999756
vn 0.000000 -0.001119 0.999999
vn -0.229899 -0.000929 0.973214
vn 0.987596 0.010701 0.156651
vn 0.999941 0.010835 0.000000
vn 1.000000 -0.000214 0.000000
vn 0.987651 -0.002029 0.156660
vn 0.000000 0.022086 -0.999756
vn -0.229847 0.021495 -0.972990
vn -0.229900 -0.000929 -0.973214
vn -0.000000 -0.001119 -0.999999
vn -0.999941 0.010835 0.000000
vn -0.987596 0.010701 0.156651
vn -0.987651 -0.002029 0.156660
vn -1.000000 -0.000214 -0.000000
vn 0.229847 0.021495 -0.972990
vn 0.229899 -0.000929 -0.973214
vn 0.147018 0.815647 -0.559559
vn 0.254072 0.018303 -0.967012
vn 0.254115 0.000000 -0.967174
vn 0.000000 -1.000000 0.000000
vn 0.000000 -1.000000 0.000000
vn 0.254115 0.000000 0.967174
vn 0.254072 0.018303 0.967012
vn 0.147018 0.815647 0.559559
vn 0.229847 0.021495 0.972990
vn 0.229900 -0.000929 0.973214
vn -0.987596 0.010701 -0.156651
vn -0.987651 -0.002029 -0.156660
vn -0.937601 0.022810 -0.346965
vn -0.491248 0.859407 -0.141760
vn -0.937494 0.000000 -0.348002
vn 0.000000 -1.000000 0.000000
vn 0.000000 -1.000000 0.000000
vn 0.000000 -1.000000 0.000000
vn 0.937494 0.000000 -0.348002
vn 0.937601 0.022810 -0.346965
vn 0.491248 0.859407 -0.141760
vn 0.987596 0.010701 -0.156651
vn 0.987651 -0.002029 -0.156660
vn -0.209992 -0.407043 -0.888943
vn -0.000000 -0.416325 -0.909216
vn 0.209992 -0.407042 -0.888943
vn 0.975694 -0.219139 0.000000
vn 0.964215 -0.216561 -0.152943
vn 0.964215 -0.216561 0.152943
vn 0.000000 -0.416325 0.909216
vn 0.209992 -0.407043 0.888943
vn -0.209992 -0.407042 0.888943
vn -0.964215 -0.216561 0.152942
vn -0.975694 -0.219139 -0.000000
vn -0.964215 -0.216561 -0.152943
vn -0.250870 -0.199947 0.947146
vn 0.000000 -0.206552 0.978436
vn 0.000000 0.000000 1.000000
vn -0.274103 0.000000 0.961700
vn -0.259870 0.934471 0.243376
vn 0.000000 0.967719 0.252034
vn -0.000000 1.000000 -0.000000
vn -0.282074 0.959393 0.000000
vn -0.274103 0.000000 -0.961700
vn 0.000000 0.000000 -1.000000
vn 0.000000 -0.206552 -0.978436
vn -0.250870 -0.199947 -0.947146
vn 1.000000 0.000000 0.000000
vn 1.000000 0.000000 0.000000
vn 1.000000 0.000000 0.000000
vn 1.000000 -0.000000 0.000000
vn -1.000000 0.000000 0.000000
vn -1.000000 0.000000 0.000000
vn -1.000000 0.000000 0.000000
vn -1.000000 0.000000 0.000000
vn 0.473088 -0.862624 0.179076
vn 0.480861 -0.876797 0.000000
vn 0.344133 -0.938921 0.000000
vn 0.346188 -0.915478 0.205071
vn 0.250870 -0.199947 -0.947146
vn 0.274103 0.000000 -0.961700
vn 0.361643 -0.000000 -0.932317
vn 0.366589 -0.192173 -0.910320
vn 0.282074 0.959393 0.000000
vn 0.259870 0.934471 0.243376
vn 0.374598 0.897256 0.233686
vn 0.376046 0.926601 -0.000000
vn 0.274103 0.000000 0.961700
vn 0.250870 -0.199947 0.947146
vn 0.366589 -0.192173 0.910320
vn 0.361644 0.000000 0.932316
vn -0.480861 -0.876797 0.000000
vn -0.473088 -0.862624 0.179076
vn -0.346188 -0.915478 0.205071
vn -0.344133 -0.938921 0.000000
vn -0.361644 -0.000000 0.932316
vn -0.366589 -0.192173 0.910320
vn -0.376046 0.926601 0.000000
vn -0.374598 0.897256 0.233686
vn -0.366589 -0.192173 -0.910320
vn -0.361643 -0.000000 -0.932317
vn -0.511886 -0.859054 0.000000
vn -0.515536 -0.829206 0.215962
vn -0.493852 -0.000000 -0.869546
vn -0.506853 -0.178055 -0.843443
vn -0.515536 0.829206 0.215961
vn -0.511886 0.859054 -0.000000
vn -0.506853 -0.178055 0.843443
vn -0.493852 -0.000000 0.869546
vn 0.515536 -0.829206 0.215962
vn 0.511886 -0.859054 -0.000000
vn 0.493852 -0.000000 0.869546
vn 0.506853 -0.178055 0.843443
vn 0.511886 0.859054 0.000000
vn 0.515537 0.829206 0.215961
vn 0.506853 -0.178055 -0.843443
vn 0.493852 -0.000000 -0.869546
vn -0.700783 -0.713375 0.000000
vn -0.688992 -0.701372 0.182668
vn -0.686412 0.000000 -0.727213
vn -0.678463 -0.151741 -0.718793
vn -0.688992 0.701372 0.182668
vn -0.700783 0.713375 -0.000000
vn -0.678463 -0.151741 0.718793
vn -0.686412 0.000000 0.727213
vn 0.688992 -0.701372 0.182668
vn 0.700783 -0.713375 -0.000000
vn 0.686412 0.000000 0.727213
vn 0.678463 -0.151741 0.718793
vn 0.700783 0.713375 0.000000
vn 0.688992 0.701372 0.182668
vn 0.678463 -0.151741 -0.718793
vn 0.686412 0.000000 -0.727213
vn 0.000000 -0.967718 0.252036
vn 0.000000 -1.000000 0.000000
vn 0.000000 -1.000000 0.000000
vn 0.000000 -0.967718 0.252036
vn 0.000000 -0.206552 -0.978436
vn 0.000000 0.000000 -1.000000
vn 0.000000 0.000000 -1.000000
vn 0.000000 -0.206552 -0.978436
vn 0.000000 1.000000 0.000000
vn 0.000000 0.967718 0.252036
vn 0.000000 0.967718 0.252036
vn 0.000000 1.000000 0.000000
vn 0.000000 0.000000 1.000000
vn 0.000000 -0.206552 0.978436
vn 0.000000 -0.206552 0.978436
vn 0.000000 0.000000 1.000000
vn 0.000000 -1.000000 0.000000
vn 0.000000 -0.967718 0.252036
vn 0.000000 -0.967718 0.252036
vn 0.000000 -1.000000 0.000000
vn 0.000000 -0.206552 0.978436
vn 0.000000 0.000000 1.000000
vn 0.000000 0.000000 1.000000
vn 0.000000 -0.206552 0.978436
vn 0.000000 0.967718 0.252036
vn 0.000000 1.000000 0.000000
vn 0.000000 1.000000 0.000000
vn 0.000000 0.967718 0.252036
vn 0.000000 0.000000 -1.000000
vn 0.000000 -0.206552 -0.978436
vn 0.000000 -0.206552 -0.978436
vn 0.000000 0.000000 -1.000000
vn 0.000000 0.967718 -0.252036
vn 0.000000 0.967718 -0.252036
vn -0.515537 0.829206 -0.215961
vn -0.688992 0.701372 -0.182668
vn 0.374598 0.897256 -0.233686
vn 0.259870 0.934471 -0.243376
vn 0.000000 0.967719 -0.252034
vn -0.259870 0.934471 -0.243376
vn -0.374598 0.897256 -0.233686
vn 0.515536 0.829206 -0.215961
vn 0.688992 0.701372 -0.182668
vn 0.000000 0.967718 -0.252036
vn 0.000000 0.967718 -0.252036
vn -1.000000 0.000000 0.000000
vn -1.000000 -0.000000 0.000000
vn 0.000000 -0.967718 -0.252036
vn 0.000000 -0.967718 -0.252036
vn 0.515536 -0.829206 -0.215962
vn 0.688992 -0.701372 -0.182668
vn -0.346188 -0.915478 -0.205071
vn -0.473088 -0.862624 -0.179076
vn 0.473088 -0.862624 -0.179076
vn 0.346188 -0.915478 -0.205071
vn -0.515536 -0.829206 -0.215962
vn -0.688992 -0.701372 -0.182668
vn 0.000000 -0.967718 -0.252036
vn 0.000000 -0.967718 -0.252036
vn 1.000000 0.000000 0.000000
vn 1.000000 0.000000 0.000000
vn 0.000000 0.206552 0.978436
vn 0.000000 0.206552 0.978436
vn -0.506853 0.178055 0.843443
vn -0.678464 0.151740 0.718792
vn 0.366589 0.192173 0.910320
vn 0.250870 0.199947 0.947146
vn 0.000000 0.206552 0.978436
vn -0.250870 0.199947 0.947146
vn -0.366589 0.192173 0.910320
vn 0.506853 0.178055 0.843443
vn 0.678464 0.151740 0.718792
vn 0.000000 0.206552 0.978436
vn 0.000000 0.206552 0.978436
vn -1.000000 0.000000 0.000000
vn -1.000000 -0.000000 0.000000
vn -1.000000 -0.000000 0.000000
vn 0.000000 0.206552 -0.978436
vn 0.000000 0.206552 -0.978436
vn 0.506853 0.178055 -0.843443
vn 0.678464 0.151740 -0.718792
vn -0.366589 0.192173 -0.910320
vn -0.250870 0.199947 -0.947146
vn 0.000000 0.206552 -0.978436
vn 0.250870 0.199947 -0.947146
vn 0.366589 0.192173 -0.910320
vn -0.506853 0.178055 -0.843443
vn -0.678464 0.151740 -0.718792
vn 0.000000 0.206552 -0.978436
vn 0.000000 0.206552 -0.978436
vn 1.000000 -0.000000 0.000000
vn 1.000000 0.000000 0.000000
vn 1.000000 -0.000000 0.000000
vn 0.158489 -0.267733 0.950368
vn 0.158489 -0.267734 0.950368
vn 0.158489 -0.267734 0.950368
vn 0.158489 -0.267733 0.950368
vn 0.958869 -0.269091 0.090330
vn 0.958869 -0.269091 0.090330
vn 0.958869 -0.269091 0.090330
vn 0.958869 -0.269091 0.090330
vn 0.958869 -0.269091 -0.090329
vn 0.958869 -0.269091 -0.090329
vn 0.958869 -0.269091 -0.090329
vn 0.958870 -0.269091 -0.090329
vn 0.158489 -0.267734 -0.950368
vn 0.158489 -0.267734 -0.950368
vn 0.158489 -0.267734 -0.950368
vn 0.158489 -0.267734 -0.950368
vn -0.158489 -0.267733 -0.950368
vn -0.158489 -0.267733 -0.950368
vn -0.158489 -0.267733 -0.950368
vn -0.158489 -0.267733 -0.950368
vn -0.958869 -0.269091 -0.090330
vn -0.958869 -0.269091 -0.090330
vn -0.958869 -0.269091 -0.090330
vn -0.958869 -0.269091 -0.090330
vn -0.958869 -0.269091 0.090329
vn -0.958869 -0.269091 0.090329
vn -0.958870 -0.269091 0.090329
vn -0.958870 -0.269091 0.090329
vn -0.158489 -0.267734 0.950368
vn -0.158489 -0.267734 0.950368
vn -0.158489 -0.267734 0.950368
vn -0.158489 -0.267734 0.950368
s 1
g HammerMesh
usemtl lambert2SG
f 1/8/1 22/14/2 23/29/3 9/30/4
s 2
f 10/32/5 20/33/6 21/15/7 7/11/8
s 3
f 28/7/9 29/13/10 22/14/11 1/8/12
s 4
f 2/1/13 30/2/14 31/3/15 12/4/16
s 5
f 28/7/17 1/8/18 9/9/19 27/10/20
f 27/16/20 9/17/19 3/18/21 26/19/22
s 2
f 5/23/23 19/25/24 20/26/6 10/22/5
s 4
f 12/4/16 31/3/15 32/27/25 4/24/26
s 1
f 9/17/4 23/20/3 24/21/27 3/18/28
s 6
f 3/48/29 24/133/30 39/134/31 40/49/32
s 7
f 4/35/33 32/36/34 37/37/35 38/38/36
s 8
f 19/166/37 5/53/38 34/54/39 35/167/40
s 9
f 26/47/41 3/48/42 40/49/43 41/50/44
s 8
f 6/39/45 19/166/37 35/167/40 36/40/46
s 2
f 20/26/6 19/25/24 6/28/47 11/6/48
f 21/15/7 20/33/6 11/34/48 8/5/49
s 3
f 22/14/11 29/13/10 30/2/50 2/1/51
s 1
f 23/29/3 22/14/2 2/1/52 12/31/53
f 24/21/27 23/20/3 12/4/53 4/24/54
s 6
f 39/134/31 24/133/30 4/135/55 38/136/56
s 9
f 5/53/57 26/47/41 41/50/44 34/54/58
s 5
f 10/22/59 27/16/20 26/19/22 5/23/60
f 7/11/61 28/7/17 27/10/20 10/12/59
s 3
f 7/11/62 21/15/63 29/13/10 28/7/9
f 30/2/50 29/13/10 21/15/63 8/5/64
s 4
f 31/3/15 30/2/14 8/5/65 11/6/66
f 32/27/25 31/3/15 11/6/66 6/28/67
s 7
f 37/37/35 32/36/34 6/39/68 36/40/69
s 8
f 35/167/40 34/54/39 16/57/70 18/168/71
f 36/40/46 35/167/40 18/168/71 15/43/72
s 7
f 33/41/73 37/37/35 36/40/69 15/43/74
f 38/38/36 37/37/35 33/41/73 14/42/75
s 6
f 17/137/76 39/134/31 38/136/56 14/138/77
f 40/49/32 39/134/31 17/137/76 13/51/78
s 9
f 41/50/44 40/49/43 13/51/79 25/52/80
f 34/54/58 41/50/44 25/52/80 16/57/81
s 10
f 42/140/82 124/189/83 125/142/84 107/143/85
s 11
f 44/77/86 126/78/87 127/79/88 87/80/89
s 12
f 117/170/90 129/171/91 130/188/92 48/191/93
s 13
f 75/59/94 101/60/95 123/61/96 102/62/97
s 14
f 92/68/98 79/69/99 111/70/100 112/71/101
s 15
f 43/109/102 97/110/103 98/111/104 51/112/105
s 12
f 49/172/106 118/173/107 119/176/108 50/177/109
s 11
f 86/82/110 45/81/111 53/87/112 85/88/113
s 10
f 106/144/114 43/190/115 51/149/116 105/150/117
s 16
f 96/121/118 42/122/119 55/123/120 95/124/121
s 10
f 42/140/82 107/143/85 108/147/122 55/148/123
s 11
f 44/77/86 87/80/89 88/85/124 56/86/125
s 12
f 117/170/90 48/191/93 54/174/126 116/175/127
s 15
f 51/112/105 98/111/104 99/115/128 59/116/129
s 12
f 50/177/109 119/176/108 120/180/130 58/181/131
s 11
f 85/88/113 53/87/112 61/93/132 84/94/133
s 10
f 105/150/117 51/149/116 59/155/134 104/156/135
s 16
f 95/124/121 55/123/120 63/125/136 94/126/137
s 10
f 55/148/123 108/147/122 109/153/138 63/154/139
s 11
f 56/86/125 88/85/124 89/91/140 64/92/141
s 12
f 116/175/127 54/174/126 62/178/142 115/179/143
s 15
f 59/116/129 99/115/128 100/118/144 67/119/145
s 12
f 58/181/131 120/180/130 121/184/146 66/185/147
s 11
f 84/94/133 61/93/132 69/99/148 83/100/149
s 10
f 104/156/135 59/155/134 67/161/150 103/162/151
s 16
f 94/126/137 63/125/136 71/129/152 93/130/153
s 10
f 63/154/139 109/153/138 110/159/154 71/160/155
s 11
f 64/92/141 89/91/140 90/97/156 72/98/157
s 12
f 115/179/143 62/178/142 70/182/158 114/183/159
s 17
f 67/119/160 100/118/161 101/60/162 75/59/163
s 18
f 66/185/164 121/184/165 122/186/166 74/187/167
s 19
f 83/100/168 69/99/169 77/105/170 82/106/171
s 20
f 103/162/172 67/161/173 75/59/174 102/62/175
s 21
f 93/130/176 71/129/177 79/69/178 92/68/179
s 22
f 71/160/180 110/159/181 111/70/182 79/69/183
s 23
f 72/98/184 90/97/185 91/103/186 80/104/187
s 24
f 114/183/188 70/182/189 78/74/190 113/75/191
s 19
f 68/107/192 83/100/168 82/106/171 76/108/193
s 11
f 60/101/194 84/94/133 83/100/149 68/107/195
f 52/95/196 85/88/113 84/94/133 60/101/194
f 47/89/197 86/82/110 85/88/113 52/95/196
f 87/80/89 127/79/88 128/83/198 46/84/199
f 88/85/124 87/80/89 46/84/199 57/90/200
f 89/91/140 88/85/124 57/90/200 65/96/201
f 90/97/156 89/91/140 65/96/201 73/102/202
s 23
f 91/103/186 90/97/185 73/102/203 81/76/204
s 14
f 78/74/205 92/68/98 112/71/101 113/75/206
s 21
f 70/132/207 93/130/176 92/68/179 78/74/208
s 16
f 62/131/209 94/126/137 93/130/153 70/132/210
f 54/128/211 95/124/121 94/126/137 62/131/209
f 48/127/212 96/121/118 95/124/121 54/128/211
s 15
f 98/111/104 97/110/103 49/113/213 50/114/214
f 99/115/128 98/111/104 50/114/214 58/117/215
f 100/118/144 99/115/128 58/117/215 66/120/216
s 17
f 101/60/162 100/118/161 66/120/217 74/63/218
s 13
f 123/61/96 101/60/95 74/63/219 122/64/220
s 20
f 69/165/221 103/162/172 102/62/175 77/66/222
s 10
f 61/163/223 104/156/135 103/162/151 69/165/224
f 53/157/225 105/150/117 104/156/135 61/163/223
f 45/151/226 106/144/114 105/150/117 53/157/225
f 107/143/85 125/142/84 126/145/227 44/146/228
f 108/147/122 107/143/85 44/146/228 56/152/229
f 109/153/138 108/147/122 56/152/229 64/158/230
f 110/159/154 109/153/138 64/158/230 72/164/231
s 22
f 111/70/182 110/159/181 72/164/232 80/72/233
s 14
f 112/71/101 111/70/100 80/72/234 91/73/235
f 113/75/206 112/71/101 91/73/235 81/76/236
s 24
f 73/102/237 114/183/188 113/75/191 81/76/238
s 12
f 65/96/239 115/179/143 114/183/159 73/102/240
f 57/90/241 116/175/127 115/179/143 65/96/239
f 46/84/242 117/170/90 116/175/127 57/90/241
f 46/84/242 128/83/243 129/171/91 117/170/90
f 119/176/108 118/173/107 47/89/244 52/95/245
f 120/180/130 119/176/108 52/95/245 60/101/246
f 121/184/146 120/180/130 60/101/246 68/107/247
s 18
f 122/186/166 121/184/165 68/107/248 76/108/249
s 13
f 82/65/250 123/61/96 122/64/220 76/67/251
f 102/62/97 123/61/96 82/65/250 77/66/252
s 10
f 124/189/83 43/190/115 106/144/114 125/142/84
f 126/145/227 125/142/84 106/144/114 45/151/226
s 11
f 127/79/88 126/78/87 45/81/111 86/82/110
f 128/83/198 127/79/88 86/82/110 47/89/197
s 12
f 129/171/91 128/83/243 47/89/244 118/173/107
f 130/188/92 129/171/91 118/173/107 49/172/106
s off
f 17/137/253 14/138/254 43/141/255 124/139/256
f 14/42/257 33/41/258 97/44/259 43/45/260
f 33/41/261 15/43/262 49/46/263 97/44/264
f 15/43/265 18/168/266 130/169/267 49/46/268
f 18/168/269 16/57/270 48/58/271 130/169/272
f 16/57/273 25/52/274 96/56/275 48/58/276
f 25/52/277 13/51/278 42/55/279 96/56/280
f 13/51/281 17/137/282 124/139/283 42/55/284
